<svg width="272" height="114" viewBox="0 0 272 114" fill="none" xmlns="http://www.w3.org/2000/svg">
<path d="M267.449 47.8065C267.936 47.8065 268.179 48.0516 268.179 48.5419V53.1755C268.179 53.6659 267.936 53.911 267.449 53.911H257.883C257.688 53.911 257.591 54.009 257.591 54.2052V98.5548C257.591 99.0452 257.347 99.2903 256.861 99.2903H251.312C250.824 99.2903 250.581 99.0452 250.581 98.5548V54.2052C250.581 54.009 250.483 53.911 250.289 53.911H241.235C240.747 53.911 240.505 53.6659 240.505 53.1755V48.5419C240.505 48.0516 240.747 47.8065 241.235 47.8065H267.449Z" fill="white"/>
<path d="M230.054 99.2903C229.616 99.2903 229.323 99.0941 229.177 98.7019L222.46 76.7845C222.41 76.6374 222.313 76.5639 222.167 76.5639H217.056C216.861 76.5639 216.764 76.6619 216.764 76.8581V98.5548C216.764 99.0452 216.521 99.2903 216.034 99.2903H210.484C209.997 99.2903 209.754 99.0452 209.754 98.5548V48.5419C209.754 48.0516 209.997 47.8065 210.484 47.8065H223.555C226.038 47.8065 228.228 48.4193 230.127 49.6452C232.025 50.871 233.486 52.6116 234.508 54.8671C235.579 57.0736 236.114 59.5987 236.114 62.4426C236.114 65.5316 235.481 68.2285 234.216 70.5329C232.951 72.7885 231.222 74.431 229.031 75.4607C228.885 75.6077 228.836 75.7548 228.885 75.9019L236.333 98.4813L236.406 98.7755C236.406 99.1188 236.187 99.2903 235.749 99.2903H230.054ZM217.056 53.911C216.861 53.911 216.764 54.009 216.764 54.2052V70.68C216.764 70.8762 216.861 70.9742 217.056 70.9742H222.46C224.455 70.9742 226.061 70.2143 227.279 68.6942C228.496 67.1252 229.104 65.0659 229.104 62.5161C229.104 59.8684 228.496 57.7846 227.279 56.2645C226.061 54.6956 224.455 53.911 222.46 53.911H217.056Z" fill="white"/>
<path d="M202.697 53.1755C202.697 53.6659 202.454 53.911 201.966 53.911H185.537C185.343 53.911 185.245 54.009 185.245 54.2052V70.1652C185.245 70.3614 185.343 70.4594 185.537 70.4594H195.614C196.101 70.4594 196.344 70.7045 196.344 71.1948V75.8284C196.344 76.3188 196.101 76.5639 195.614 76.5639H185.537C185.343 76.5639 185.245 76.6619 185.245 76.8581V92.8916C185.245 93.0878 185.343 93.1858 185.537 93.1858H201.966C202.454 93.1858 202.697 93.4309 202.697 93.9213V98.5548C202.697 99.0452 202.454 99.2903 201.966 99.2903H178.965C178.479 99.2903 178.235 99.0452 178.235 98.5548V48.5419C178.235 48.0516 178.479 47.8065 178.965 47.8065H201.966C202.454 47.8065 202.697 48.0516 202.697 48.5419V53.1755Z" fill="white"/>
<path d="M149.23 99.2903C148.743 99.2903 148.5 99.0452 148.5 98.5548V48.5419C148.5 48.0516 148.743 47.8065 149.23 47.8065H154.779C155.266 47.8065 155.51 48.0516 155.51 48.5419V92.8916C155.51 93.0878 155.607 93.1858 155.802 93.1858H172.158C172.645 93.1858 172.888 93.4309 172.888 93.9213V98.5548C172.888 99.0452 172.645 99.2903 172.158 99.2903H149.23Z" fill="white"/>
<path d="M136.703 99.2903C136.265 99.2903 135.997 99.0697 135.9 98.6284L134.293 90.1703C134.293 90.0723 134.245 89.9988 134.147 89.9497C134.099 89.9006 134.026 89.8761 133.928 89.8761H122.026C121.929 89.8761 121.832 89.9006 121.734 89.9497C121.685 89.9988 121.661 90.0723 121.661 90.1703L120.128 98.6284C120.079 99.0697 119.811 99.2903 119.324 99.2903H113.775C113.531 99.2903 113.337 99.2168 113.191 99.0697C113.093 98.9226 113.069 98.7264 113.118 98.4813L123.998 48.4684C124.095 48.0271 124.363 47.8065 124.801 47.8065H131.3C131.787 47.8065 132.054 48.0271 132.103 48.4684L143.056 98.4813V98.6284C143.056 99.0697 142.837 99.2903 142.399 99.2903H136.703ZM122.902 83.9923C122.902 84.1885 122.975 84.2865 123.121 84.2865H132.833C132.979 84.2865 133.052 84.1885 133.052 83.9923L128.087 57.8826C128.038 57.7846 127.989 57.7355 127.941 57.7355C127.892 57.7355 127.843 57.7846 127.795 57.8826L122.902 83.9923Z" fill="white"/>
<path d="M108.07 53.1755C108.07 53.6659 107.827 53.911 107.34 53.911H90.9107C90.7159 53.911 90.6186 54.009 90.6186 54.2052V70.1652C90.6186 70.3614 90.7159 70.4594 90.9107 70.4594H100.987C101.474 70.4594 101.718 70.7045 101.718 71.1948V75.8284C101.718 76.3188 101.474 76.5639 100.987 76.5639H90.9107C90.7159 76.5639 90.6186 76.6619 90.6186 76.8581V92.8916C90.6186 93.0878 90.7159 93.1858 90.9107 93.1858H107.34C107.827 93.1858 108.07 93.4309 108.07 93.9213V98.5548C108.07 99.0452 107.827 99.2903 107.34 99.2903H84.3388C83.852 99.2903 83.6086 99.0452 83.6086 98.5548V48.5419C83.6086 48.0516 83.852 47.8065 84.3388 47.8065H107.34C107.827 47.8065 108.07 48.0516 108.07 48.5419V53.1755Z" fill="white"/>
<path d="M70.821 99.2903C70.3828 99.2903 70.0908 99.0941 69.9447 98.7019L63.2269 76.7845C63.1781 76.6374 63.0808 76.5639 62.9348 76.5639H57.8234C57.6286 76.5639 57.5313 76.6619 57.5313 76.8581V98.5548C57.5313 99.0452 57.288 99.2903 56.8011 99.2903H51.2516C50.7647 99.2903 50.5214 99.0452 50.5214 98.5548V48.5419C50.5214 48.0516 50.7647 47.8065 51.2516 47.8065H64.3222C66.8048 47.8065 68.9955 48.4193 70.894 49.6452C72.7925 50.871 74.2529 52.6116 75.2752 54.8671C76.3462 57.0736 76.8816 59.5987 76.8816 62.4426C76.8816 65.5316 76.2487 68.2285 74.9831 70.5329C73.7175 72.7885 71.9893 74.431 69.7987 75.4607C69.6526 75.6077 69.6039 75.7548 69.6526 75.9019L77.1007 98.4813L77.1737 98.7755C77.1737 99.1188 76.9546 99.2903 76.5165 99.2903H70.821ZM57.8234 53.911C57.6286 53.911 57.5313 54.009 57.5313 54.2052V70.68C57.5313 70.8762 57.6286 70.9742 57.8234 70.9742H63.2269C65.2227 70.9742 66.8291 70.2143 68.0462 68.6942C69.2633 67.1252 69.8717 65.0659 69.8717 62.5161C69.8717 59.8684 69.2633 57.7846 68.0462 56.2645C66.8291 54.6956 65.2227 53.911 63.2269 53.911H57.8234Z" fill="white"/>
<path d="M35.207 99.2903C34.7203 99.2903 34.4768 99.0452 34.4768 98.5548V48.5419C34.4768 48.0516 34.7203 47.8065 35.207 47.8065H40.7565C41.2434 47.8065 41.4867 48.0516 41.4867 48.5419V98.5548C41.4867 99.0452 41.2434 99.2903 40.7565 99.2903H35.207Z" fill="white"/>
<path d="M28.916 53.1755C28.916 53.6659 28.6725 53.911 28.1858 53.911H11.8292C11.6345 53.911 11.5372 54.009 11.5372 54.2052V70.1652C11.5372 70.3614 11.6345 70.4594 11.8292 70.4594H21.833C22.3197 70.4594 22.5632 70.7045 22.5632 71.1948V75.8284C22.5632 76.3188 22.3197 76.5639 21.833 76.5639H11.8292C11.6345 76.5639 11.5372 76.6619 11.5372 76.8581V98.5548C11.5372 99.0452 11.2938 99.2903 10.807 99.2903H5.25742C4.77062 99.2903 4.52722 99.0452 4.52722 98.5548V48.5419C4.52722 48.0516 4.77062 47.8065 5.25742 47.8065H28.1858C28.6725 47.8065 28.916 48.0516 28.916 48.5419V53.1755Z" fill="white"/>
<path fill-rule="evenodd" clip-rule="evenodd" d="M115.007 22.0645H3.651V18.3871H115.007V22.0645Z" fill="white"/>
<path fill-rule="evenodd" clip-rule="evenodd" d="M268.349 22.0645H156.993V18.3871H268.349V22.0645Z" fill="white"/>
<mask id="mask0_43_65" style="mask-type:luminance" maskUnits="userSpaceOnUse" x="120" y="0" width="32" height="35">
<path d="M151.517 0H120.483V34.9355H151.517V0Z" fill="white"/>
</mask>
<g mask="url(#mask0_43_65)">
<path d="M131.518 0.36881C132.058 -0.129293 132.897 -0.12247 133.437 0.375634C135.349 2.14289 137.143 4.04659 138.819 6.10724C139.581 5.12468 140.447 4.05342 141.382 3.18003C141.93 2.6751 142.775 2.6751 143.322 3.18685C145.719 5.43855 147.748 8.41353 149.175 11.2384C150.582 14.0223 151.517 16.8676 151.517 18.8736C151.517 27.5803 144.603 34.9359 136 34.9359C127.299 34.9359 120.483 27.5735 120.483 18.8668C120.483 16.2467 121.716 13.0466 123.628 9.88054C125.561 6.66676 128.29 3.3165 131.518 0.36881ZM136.118 28.3854C137.87 28.3854 139.422 27.9078 140.884 26.9525C143.8 24.9465 144.583 20.9343 142.83 17.782C142.519 17.1679 141.722 17.1269 141.272 17.6455L139.526 19.6448C139.069 20.1633 138.244 20.1497 137.815 19.6106C136.672 18.1777 134.628 15.619 133.465 14.1656C133.028 13.6197 132.197 13.6129 131.754 14.1588C129.412 17.0587 128.235 18.8874 128.235 20.9412C128.242 25.6152 131.747 28.3854 136.118 28.3854Z" fill="#FF5733"/>
</g>
</svg>
