<svg width="149" height="62" viewBox="0 0 149 62" fill="none" xmlns="http://www.w3.org/2000/svg">
<path d="M146.507 26C146.774 26 146.907 26.1333 146.907 26.4V28.92C146.907 29.1867 146.774 29.32 146.507 29.32H141.267C141.16 29.32 141.107 29.3733 141.107 29.48V53.6C141.107 53.8667 140.973 54 140.707 54H137.667C137.4 54 137.267 53.8667 137.267 53.6V29.48C137.267 29.3733 137.213 29.32 137.107 29.32H132.147C131.88 29.32 131.747 29.1867 131.747 28.92V26.4C131.747 26.1333 131.88 26 132.147 26H146.507Z" fill="black"/>
<path d="M126.022 54C125.782 54 125.622 53.8933 125.542 53.68L121.862 41.76C121.835 41.68 121.782 41.64 121.702 41.64H118.902C118.795 41.64 118.742 41.6933 118.742 41.8V53.6C118.742 53.8667 118.609 54 118.342 54H115.302C115.035 54 114.902 53.8667 114.902 53.6V26.4C114.902 26.1333 115.035 26 115.302 26H122.462C123.822 26 125.022 26.3333 126.062 27C127.102 27.6667 127.902 28.6133 128.462 29.84C129.049 31.04 129.342 32.4133 129.342 33.96C129.342 35.64 128.995 37.1067 128.302 38.36C127.609 39.5867 126.662 40.48 125.462 41.04C125.382 41.12 125.355 41.2 125.382 41.28L129.462 53.56L129.502 53.72C129.502 53.9067 129.382 54 129.142 54H126.022ZM118.902 29.32C118.795 29.32 118.742 29.3733 118.742 29.48V38.44C118.742 38.5467 118.795 38.6 118.902 38.6H121.862C122.955 38.6 123.835 38.1867 124.502 37.36C125.169 36.5067 125.502 35.3867 125.502 34C125.502 32.56 125.169 31.4267 124.502 30.6C123.835 29.7467 122.955 29.32 121.862 29.32H118.902Z" fill="black"/>
<path d="M111.036 28.92C111.036 29.1867 110.903 29.32 110.636 29.32H101.636C101.53 29.32 101.476 29.3733 101.476 29.48V38.16C101.476 38.2667 101.53 38.32 101.636 38.32H107.156C107.423 38.32 107.556 38.4533 107.556 38.72V41.24C107.556 41.5067 107.423 41.64 107.156 41.64H101.636C101.53 41.64 101.476 41.6933 101.476 41.8V50.52C101.476 50.6267 101.53 50.68 101.636 50.68H110.636C110.903 50.68 111.036 50.8133 111.036 51.08V53.6C111.036 53.8667 110.903 54 110.636 54H98.0362C97.7696 54 97.6362 53.8667 97.6362 53.6V26.4C97.6362 26.1333 97.7696 26 98.0362 26H110.636C110.903 26 111.036 26.1333 111.036 26.4V28.92Z" fill="black"/>
<path d="M81.7472 54C81.4805 54 81.3472 53.8667 81.3472 53.6V26.4C81.3472 26.1333 81.4805 26 81.7472 26H84.7872C85.0538 26 85.1872 26.1333 85.1872 26.4V50.52C85.1872 50.6267 85.2405 50.68 85.3472 50.68H94.3072C94.5738 50.68 94.7072 50.8133 94.7072 51.08V53.6C94.7072 53.8667 94.5738 54 94.3072 54H81.7472Z" fill="black"/>
<path d="M74.8853 54C74.6453 54 74.4986 53.88 74.4453 53.64L73.5653 49.04C73.5653 48.9867 73.5386 48.9467 73.4853 48.92C73.4586 48.8933 73.4186 48.88 73.3653 48.88H66.8453C66.792 48.88 66.7386 48.8933 66.6853 48.92C66.6586 48.9467 66.6453 48.9867 66.6453 49.04L65.8053 53.64C65.7786 53.88 65.632 54 65.3653 54H62.3253C62.192 54 62.0853 53.96 62.0053 53.88C61.952 53.8 61.9386 53.6933 61.9653 53.56L67.9253 26.36C67.9786 26.12 68.1253 26 68.3653 26H71.9253C72.192 26 72.3386 26.12 72.3653 26.36L78.3653 53.56V53.64C78.3653 53.88 78.2453 54 78.0053 54H74.8853ZM67.3253 45.68C67.3253 45.7867 67.3653 45.84 67.4453 45.84H72.7653C72.8453 45.84 72.8853 45.7867 72.8853 45.68L70.1653 31.48C70.1386 31.4267 70.112 31.4 70.0853 31.4C70.0586 31.4 70.032 31.4267 70.0053 31.48L67.3253 45.68Z" fill="black"/>
<path d="M59.2003 28.92C59.2003 29.1867 59.067 29.32 58.8003 29.32H49.8003C49.6936 29.32 49.6403 29.3733 49.6403 29.48V38.16C49.6403 38.2667 49.6936 38.32 49.8003 38.32H55.3203C55.587 38.32 55.7203 38.4533 55.7203 38.72V41.24C55.7203 41.5067 55.587 41.64 55.3203 41.64H49.8003C49.6936 41.64 49.6403 41.6933 49.6403 41.8V50.52C49.6403 50.6267 49.6936 50.68 49.8003 50.68H58.8003C59.067 50.68 59.2003 50.8133 59.2003 51.08V53.6C59.2003 53.8667 59.067 54 58.8003 54H46.2003C45.9336 54 45.8003 53.8667 45.8003 53.6V26.4C45.8003 26.1333 45.9336 26 46.2003 26H58.8003C59.067 26 59.2003 26.1333 59.2003 26.4V28.92Z" fill="black"/>
<path d="M38.7953 54C38.5553 54 38.3953 53.8933 38.3153 53.68L34.6353 41.76C34.6086 41.68 34.5553 41.64 34.4753 41.64H31.6753C31.5686 41.64 31.5153 41.6933 31.5153 41.8V53.6C31.5153 53.8667 31.382 54 31.1153 54H28.0753C27.8086 54 27.6753 53.8667 27.6753 53.6V26.4C27.6753 26.1333 27.8086 26 28.0753 26H35.2353C36.5953 26 37.7953 26.3333 38.8353 27C39.8753 27.6667 40.6753 28.6133 41.2353 29.84C41.822 31.04 42.1153 32.4133 42.1153 33.96C42.1153 35.64 41.7686 37.1067 41.0753 38.36C40.382 39.5867 39.4353 40.48 38.2353 41.04C38.1553 41.12 38.1286 41.2 38.1553 41.28L42.2353 53.56L42.2753 53.72C42.2753 53.9067 42.1553 54 41.9153 54H38.7953ZM31.6753 29.32C31.5686 29.32 31.5153 29.3733 31.5153 29.48V38.44C31.5153 38.5467 31.5686 38.6 31.6753 38.6H34.6353C35.7286 38.6 36.6086 38.1867 37.2753 37.36C37.942 36.5067 38.2753 35.3867 38.2753 34C38.2753 32.56 37.942 31.4267 37.2753 30.6C36.6086 29.7467 35.7286 29.32 34.6353 29.32H31.6753Z" fill="black"/>
<path d="M19.2862 54C19.0196 54 18.8862 53.8667 18.8862 53.6V26.4C18.8862 26.1333 19.0196 26 19.2862 26H22.3262C22.5929 26 22.7262 26.1333 22.7262 26.4V53.6C22.7262 53.8667 22.5929 54 22.3262 54H19.2862Z" fill="black"/>
<path d="M15.84 28.92C15.84 29.1867 15.7066 29.32 15.44 29.32H6.47998C6.37331 29.32 6.31998 29.3733 6.31998 29.48V38.16C6.31998 38.2667 6.37331 38.32 6.47998 38.32H11.96C12.2266 38.32 12.36 38.4533 12.36 38.72V41.24C12.36 41.5067 12.2266 41.64 11.96 41.64H6.47998C6.37331 41.64 6.31998 41.6933 6.31998 41.8V53.6C6.31998 53.8667 6.18665 54 5.91998 54H2.87998C2.61331 54 2.47998 53.8667 2.47998 53.6V26.4C2.47998 26.1333 2.61331 26 2.87998 26H15.44C15.7066 26 15.84 26.1333 15.84 26.4V28.92Z" fill="black"/>
<path fill-rule="evenodd" clip-rule="evenodd" d="M63 12H2V10H63V12Z" fill="black"/>
<path fill-rule="evenodd" clip-rule="evenodd" d="M147 12H86V10H147V12Z" fill="black"/>
<g clip-path="url(#clip0_36_32)">
<path d="M72.0449 0.200382C72.3408 -0.0705166 72.8 -0.0668056 73.096 0.204093C74.1433 1.16523 75.1261 2.20058 76.0444 3.32128C76.4618 2.78691 76.9362 2.20429 77.4484 1.72929C77.7482 1.45468 78.2112 1.45468 78.5109 1.733C79.8239 2.95761 80.9357 4.57558 81.7174 6.11191C82.4877 7.62597 83 9.17343 83 10.2644C83 14.9996 79.2129 19 74.5 19C69.7339 19 66 14.9959 66 10.2607C66 8.83573 66.6754 7.0953 67.7228 5.37343C68.7815 3.62558 70.2766 1.80351 72.0449 0.200382ZM74.5645 15.4375C75.5246 15.4375 76.3746 15.1777 77.1752 14.6582C78.7728 13.5672 79.2016 11.3851 78.2415 9.6707C78.0708 9.33671 77.6344 9.31445 77.3877 9.59648L76.4315 10.6838C76.181 10.9658 75.7295 10.9584 75.4942 10.6652C74.8681 9.88593 73.7487 8.49433 73.1112 7.7039C72.8721 7.40702 72.4167 7.40331 72.1739 7.70019C70.8913 9.27733 70.2462 10.2719 70.2462 11.3889C70.25 13.9309 72.1701 15.4375 74.5645 15.4375Z" fill="#C70039"/>
</g>
<defs>
<clipPath id="clip0_36_32">
<rect width="17" height="19" fill="white" transform="translate(66)"/>
</clipPath>
</defs>
</svg>
